<svg width="59" height="58" viewBox="0 0 59 58" fill="none" xmlns="http://www.w3.org/2000/svg">
<path opacity="0.75" d="M29.5156 0C45.5323 0 58.5156 12.9833 58.5156 29C58.5156 35.96 56.0622 42.3516 51.9732 47.3512L52.0718 47.4556L47.9712 51.5562L47.8668 51.4576C42.6922 55.698 36.2058 58.0105 29.5156 58C13.4989 58 0.515625 45.0167 0.515625 29C0.515625 12.9833 13.4989 0 29.5156 0ZM6.31563 29C6.31556 33.3411 7.53348 37.5951 9.8309 41.2784C12.1283 44.9617 15.4131 47.9266 19.3118 49.8359C23.2104 51.7452 27.5666 52.5223 31.885 52.079C36.2034 51.6357 40.3107 49.9896 43.7401 47.328L36.8526 40.4376C36.3475 40.5461 35.8323 40.6005 35.3156 40.6H32.4156V46.4H26.6156V40.6H19.3656V34.8H35.3156C35.678 34.8006 36.0274 34.6656 36.2952 34.4215C36.563 34.1774 36.7296 33.8419 36.7624 33.481C36.7951 33.1201 36.6916 32.7601 36.4721 32.4718C36.2526 32.1834 35.9332 31.9877 35.5766 31.9232L35.3156 31.9H23.7156C22.443 31.8999 21.1928 31.5649 20.0907 30.9286C18.9886 30.2923 18.0734 29.377 17.4371 28.2749C16.8008 27.1728 16.4658 25.9226 16.4658 24.6499C16.4658 23.3773 16.8008 22.1271 17.4371 21.025L11.1847 14.7726C8.0202 18.8392 6.3063 23.8472 6.31563 29ZM29.5156 5.8C24.1564 5.8 19.2206 7.61829 15.2911 10.672L22.1786 17.5595C22.6838 17.4519 23.1991 17.3985 23.7156 17.4H26.6156V11.6H32.4156V17.4H39.6656V23.2H23.7156C23.3533 23.1993 23.0038 23.3343 22.7361 23.5785C22.4683 23.8226 22.3016 24.1581 22.2689 24.519C22.2361 24.8798 22.3397 25.2399 22.5592 25.5282C22.7786 25.8165 23.0981 26.0122 23.4546 26.0768L23.7156 26.1H35.3156C36.5883 26.1 37.8384 26.435 38.9406 27.0714C40.0427 27.7077 40.9579 28.6229 41.5942 29.7251C42.2305 30.8272 42.5655 32.0774 42.5654 33.35C42.5654 34.6227 42.2304 35.8729 41.5941 36.975L47.8465 43.2245C50.5083 39.7949 52.1544 35.6872 52.5976 31.3686C53.0409 27.05 52.2634 22.6936 50.3538 18.7948C48.4441 14.8961 45.4789 11.6113 41.7951 9.31412C38.1114 7.01691 33.857 5.79939 29.5156 5.8Z" fill="white"/>
</svg>
