<?xml version="1.0" encoding="utf-8"?>
<!-- Generator: Adobe Illustrator 26.4.1, SVG Export Plug-In . SVG Version: 6.00 Build 0)  -->
<svg version="1.1" id="Capa_1" xmlns="http://www.w3.org/2000/svg" xmlns:xlink="http://www.w3.org/1999/xlink" x="0px" y="0px"
	 viewBox="0 0 40 40" style="enable-background:new 0 0 40 40;" xml:space="preserve">
<style type="text/css">
	.st0{fill:#242424;}
	.st1{fill:#FFE0C2;stroke:#FFFFFF;stroke-miterlimit:10;}
</style>
<path class="st0" d="M20,33.5c3.8,0,6.9-1.3,9.5-3.9c2.6-2.6,3.9-5.8,3.9-9.5s-1.3-6.9-3.9-9.5c-2.6-2.6-5.8-3.9-9.5-3.9
	s-6.9,1.3-9.5,3.9c-2.6,2.6-3.9,5.8-3.9,9.5s1.3,6.9,3.9,9.5C13.1,32.2,16.2,33.5,20,33.5z"/>
<g>
	<path class="st0" d="M20,33.5c3.8,0,6.9-1.3,9.5-3.9c2.6-2.6,3.9-5.8,3.9-9.5s-1.3-6.9-3.9-9.5c-2.6-2.6-5.8-3.9-9.5-3.9
		s-6.9,1.3-9.5,3.9c-2.6,2.6-3.9,5.8-3.9,9.5s1.3,6.9,3.9,9.5C13.1,32.2,16.2,33.5,20,33.5z"/>
</g>
<polygon class="st1" points="15.4,25.1 20,20.5 24.6,25.1 25.1,24.6 20.5,20 25.1,15.4 24.6,14.9 20,19.5 15.4,14.9 14.9,15.4 
	19.5,20 14.9,24.6 "/>
</svg>
