<svg width="58" height="60" viewBox="0 0 58 60" fill="none" xmlns="http://www.w3.org/2000/svg">
<path opacity="0.75" d="M15.7982 35.3L15.136 35.2997L15.3171 35.9367C17.2791 42.8387 22.6157 47.9 29 47.9C37.1029 47.9 43.5 39.7798 43.5 30C43.5 20.2202 37.1029 12.1 29 12.1C22.7282 12.1 17.4675 16.9845 15.4213 23.7H12.2H11.1559L11.8104 24.5134L18.8104 33.2134L19.2 33.6976L19.5896 33.2134L26.5896 24.5134L27.2441 23.7H26.2H22.4996C23.9565 20.7458 26.3654 18.9 29 18.9C31.1196 18.9 33.0827 20.0848 34.5349 22.0899C35.9867 24.0945 36.9 26.8892 36.9 30C36.9 33.1108 35.9867 35.9055 34.5349 37.9101C33.0827 39.9152 31.1196 41.1 29 41.1C26.1646 41.1 23.5911 38.9652 22.1868 35.6099L22.0584 35.3031L21.7258 35.3029L15.7982 35.3ZM57.5 30C57.5 13.7325 44.7485 0.5 29 0.5C13.2515 0.5 0.5 13.7325 0.5 30C0.5 46.2675 13.2515 59.5 29 59.5C44.7485 59.5 57.5 46.2675 57.5 30ZM7.1 30C7.1 17.456 16.9305 7.3 29 7.3C41.0695 7.3 50.9 17.456 50.9 30C50.9 42.544 41.0695 52.7 29 52.7C16.9305 52.7 7.1 42.544 7.1 30Z" fill="white" stroke="#745838"/>
</svg>
