<svg width="58" height="58" viewBox="0 0 58 58" fill="none" xmlns="http://www.w3.org/2000/svg">
<path opacity="0.75" d="M40.7 31.8V31.3H40.2H17.8H17.3V31.8V37.4V37.9H17.8H40.2H40.7V37.4V31.8ZM40.7 20.6V20.1H40.2H17.8H17.3V20.6V26.2V26.7H17.8H40.2H40.7V26.2V20.6ZM57.5 29C57.5 13.2595 44.7405 0.5 29 0.5C13.2595 0.5 0.5 13.2595 0.5 29C0.5 44.7405 13.2595 57.5 29 57.5C44.7405 57.5 57.5 44.7405 57.5 29ZM13.5144 13.5144C17.6214 9.40732 23.1918 7.1 29 7.1C34.8082 7.1 40.3786 9.40732 44.4856 13.5144C48.5927 17.6214 50.9 23.1918 50.9 29C50.9 34.8082 48.5927 40.3786 44.4856 44.4856C40.3786 48.5927 34.8082 50.9 29 50.9C23.1918 50.9 17.6214 48.5927 13.5144 44.4856C9.40732 40.3786 7.1 34.8082 7.1 29C7.1 23.1918 9.40732 17.6214 13.5144 13.5144Z" fill="white" stroke="#745838"/>
</svg>
