<svg width="58" height="59" viewBox="0 0 58 59" fill="none" xmlns="http://www.w3.org/2000/svg">
<path opacity="0.75" d="M37.4 38.55H37.9V38.05V26.65C37.9 25.7644 37.5544 24.9132 36.9366 24.2843C36.3184 23.6551 35.4781 23.3 34.6 23.3H23.4C22.5219 23.3 21.6816 23.6551 21.0634 24.2843C20.4456 24.9132 20.1 25.7644 20.1 26.65V38.05V38.55H20.6H24.3V49.45V49.95H24.8H33.2H33.7V49.45V38.55H37.4ZM57.5 29.5C57.5 13.4917 44.7488 0.5 29 0.5C13.2512 0.5 0.5 13.4917 0.5 29.5C0.5 45.5083 13.2512 58.5 29 58.5C44.7488 58.5 57.5 45.5083 57.5 29.5ZM13.5175 13.7284C17.6252 9.54727 23.1946 7.2 29 7.2C34.8054 7.2 40.3748 9.54727 44.4825 13.7284C48.5906 17.9098 50.9 23.5828 50.9 29.5C50.9 35.4172 48.5906 41.0902 44.4825 45.2716C40.3748 49.4527 34.8054 51.8 29 51.8C23.1946 51.8 17.6252 49.4527 13.5175 45.2716C9.40943 41.0902 7.1 35.4172 7.1 29.5C7.1 23.5828 9.40943 17.9098 13.5175 13.7284ZM33.3165 10.8691C32.1732 9.7054 30.6207 9.05 29 9.05C27.3793 9.05 25.8268 9.7054 24.6835 10.8691C23.5406 12.0325 22.9 13.6085 22.9 15.25C22.9 16.8915 23.5406 18.4675 24.6835 19.6309C25.8268 20.7946 27.3793 21.45 29 21.45C30.6207 21.45 32.1732 20.7946 33.3165 19.6309C34.4594 18.4675 35.1 16.8915 35.1 15.25C35.1 13.6085 34.4594 12.0325 33.3165 10.8691Z" fill="white" stroke="#745838"/>
</svg>
